<svg xmlns="http://www.w3.org/2000/svg" xmlns:xlink="http://www.w3.org/1999/xlink" viewBox="0 0 64 64" id="data-analysis">
  <defs>
    <path id="a" d="m41.72 55.39 4.21 2.29a1.33 1.33 0 0 0-.82-.14l-4.21-2.29c.3-.04.58.01.82.14z"></path>
  </defs>
  <clipPath id="b">
    <use xlink:href="#a" overflow="visible"></use>
  </clipPath>
  <g clip-path="url(#b)">
    <path fill="#848080" d="m45.11 57.54-4.21-2.29c.19-.03.37-.02.53.03l4.21 2.29c-.16-.04-.34-.05-.53-.03"></path>
    <path fill="#807d7d" d="m45.65 57.57-4.21-2.29c.08.02.17.05.24.09l4.21 2.29c-.08-.04-.16-.07-.24-.09"></path>
    <path fill="#7c7979" d="m45.89 57.66-4.21-2.29c.02.01.03.02.05.02l4.21 2.29c-.02 0-.04-.01-.05-.02"></path>
  </g>
  <path fill="#8d8888" d="m22.99 60.65-4.21-2.29 22.12-3.11 4.21 2.29z"></path>
  <defs>
    <path id="c" d="m22.16 63.84-4.21-2.29c-.43-.23-.71-.71-.71-1.3 0-.93.69-1.77 1.54-1.89l4.21 2.29c-.85.12-1.54.96-1.54 1.89 0 .59.28 1.07.71 1.3z"></path>
  </defs>
  <clipPath id="d">
    <use xlink:href="#c" overflow="visible"></use>
  </clipPath>
  <g clip-path="url(#d)">
    <path fill="#686565" d="m22.16 63.84-4.21-2.29c-.43-.23-.71-.71-.71-1.3 0-.23.04-.45.12-.66l4.21 2.29c-.08.21-.12.43-.12.66 0 .59.28 1.07.71 1.3"></path>
    <path fill="#6c6969" d="m21.57 61.88-4.21-2.29c.03-.09.07-.18.12-.26l4.21 2.29c-.05.08-.09.17-.12.26"></path>
    <path fill="#706d6d" d="m21.69 61.62-4.21-2.29c.04-.07.08-.14.13-.2l4.21 2.29c-.05.06-.1.13-.13.2"></path>
    <path fill="#747171" d="m21.81 61.41-4.21-2.29c.04-.06.09-.12.14-.18l4.21 2.29c-.05.06-.1.12-.14.18"></path>
    <path fill="#787575" d="m21.95 61.24-4.21-2.29c.05-.06.1-.11.16-.16l4.21 2.29c-.06.05-.11.1-.16.16"></path>
    <path fill="#7c7979" d="m22.11 61.08-4.21-2.29c.06-.05.12-.1.19-.15l4.21 2.29c-.07.05-.13.1-.19.15"></path>
    <path fill="#807d7d" d="m22.29 60.93-4.21-2.29c.08-.06.16-.1.25-.14l4.21 2.29c-.09.04-.17.09-.25.14"></path>
    <path fill="#848080" d="m22.54 60.79-4.21-2.29c.14-.07.29-.11.45-.14l4.21 2.29c-.15.02-.31.07-.45.14"></path>
  </g>
  <path fill="#aea9a9" d="M45.11 57.54c.85-.12 1.54.53 1.54 1.45 0 .92-.69 1.76-1.54 1.88l-22.12 3.11c-.85.12-1.54-.53-1.54-1.45 0-.93.69-1.77 1.54-1.89l22.12-3.1z"></path>
  <path fill="#316356" d="m25.89 60.25-4.22-2.3 2.17-5.67 4.21 2.29z"></path>
  <path fill="#3b7c6c" d="m28.05 54.57-4.21-2.29 12.02-1.69 4.21 2.29z"></path>
  <path fill="#4a9984" d="m40.07 52.88 2.15 5.07-16.33 2.3 2.16-5.68z"></path>
  <defs>
    <path id="e" d="M28.99 48.97c.25.14.55.19.87.15l4.21 2.29c-.32.04-.62-.01-.87-.15-1.26-.68-2.95-1.6-4.21-2.29z"></path>
  </defs>
  <clipPath id="f">
    <use xlink:href="#e" overflow="visible"></use>
  </clipPath>
  <g clip-path="url(#f)">
    <path fill="#7c7979" d="m33.2 51.27-4.21-2.29c.02.01.03.02.05.03l4.21 2.29c-.01-.02-.03-.02-.05-.03"></path>
    <path fill="#807d7d" d="M33.25 51.29 29.04 49c.08.04.17.07.26.09l4.21 2.29c-.09-.02-.18-.05-.26-.09"></path>
    <path fill="#848080" d="M33.51 51.39 29.3 49.1c.17.04.36.06.56.03l4.21 2.29c-.2.02-.39.01-.56-.03"></path>
  </g>
  <defs>
    <path id="g" d="M31.47 47.15c0-.62-.3-1.12-.75-1.37l4.21 2.29c.45.25.75.75.75 1.37 0 .97-.73 1.85-1.62 1.98l-4.21-2.29c.89-.13 1.62-1.02 1.62-1.98z"></path>
  </defs>
  <clipPath id="h">
    <use xlink:href="#g" overflow="visible"></use>
  </clipPath>
  <g clip-path="url(#h)">
    <path fill="#848080" d="m34.07 51.42-4.21-2.29c.16-.02.32-.07.47-.14l4.21 2.29c-.15.07-.31.11-.47.14"></path>
    <path fill="#807d7d" d="m34.54 51.28-4.21-2.29c.09-.04.18-.09.26-.15l4.21 2.29c-.08.05-.17.1-.26.15"></path>
    <path fill="#7c7979" d="m34.8 51.12-4.21-2.29c.07-.05.13-.1.2-.15L35 50.97c-.07.06-.13.11-.2.15"></path>
    <path fill="#787575" d="m35 50.97-4.21-2.29c.06-.05.11-.11.17-.17l4.21 2.29-.17.17"></path>
    <path fill="#747171" d="m35.16 50.8-4.21-2.29c.05-.06.1-.12.15-.19l4.21 2.29c-.05.07-.1.13-.15.19"></path>
    <path fill="#706d6d" d="m35.31 50.62-4.21-2.29c.05-.07.09-.14.13-.21l4.21 2.29c-.04.07-.08.14-.13.21"></path>
    <path fill="#6c6969" d="m35.44 50.4-4.21-2.29c.05-.09.09-.18.12-.27l4.21 2.29c-.03.09-.07.19-.12.27"></path>
    <path fill="#686565" d="m35.56 50.13-4.21-2.29c.08-.22.12-.45.13-.69 0-.62-.3-1.12-.75-1.37l4.21 2.29c.45.25.75.75.75 1.37 0 .24-.05.47-.13.69"></path>
  </g>
  <defs>
    <path id="i" d="m30.72 45.78 4.21 2.29c-.25-.14-.54-.19-.86-.15l-4.21-2.29c.32-.04.61.01.86.15z"></path>
  </defs>
  <clipPath id="j">
    <use xlink:href="#i" overflow="visible"></use>
  </clipPath>
  <g clip-path="url(#j)">
    <path fill="#46545a" d="m34.08 47.92-4.21-2.29c.19-.03.38-.02.55.03l4.21 2.29c-.17-.04-.36-.05-.55-.03"></path>
    <path fill="#445157" d="m34.63 47.95-4.21-2.29c.09.02.17.05.26.09l4.21 2.29c-.08-.03-.17-.07-.26-.09"></path>
    <path fill="#404f55" d="m34.89 48.05-4.21-2.29c.02.01.03.02.05.03l4.21 2.29c-.02-.02-.04-.03-.05-.03"></path>
  </g>
  <defs>
    <path id="k" d="m33.2 51.27-4.21-2.29c-.45-.25-.75-.75-.75-1.37 0-.96.73-1.84 1.63-1.97l4.21 2.29c-.9.13-1.62 1.01-1.63 1.97 0 .62.3 1.12.75 1.37z"></path>
  </defs>
  <clipPath id="l">
    <use xlink:href="#k" overflow="visible"></use>
  </clipPath>
  <g clip-path="url(#l)">
    <path fill="#374247" d="m33.2 51.27-4.21-2.29c-.45-.25-.75-.75-.75-1.37 0-.24.04-.47.12-.68l4.21 2.29c-.08.22-.12.45-.12.68 0 .62.3 1.12.75 1.37"></path>
    <path fill="#39454a" d="m32.58 49.21-4.21-2.29c.03-.09.08-.18.12-.27l4.21 2.29c-.05.09-.09.18-.12.27"></path>
    <path fill="#3b474d" d="m32.7 48.94-4.21-2.29c.04-.07.08-.15.13-.21l4.21 2.29c-.05.06-.09.14-.13.21"></path>
    <path fill="#3d4a4f" d="m32.83 48.73-4.21-2.29c.05-.06.09-.13.15-.19l4.21 2.29c-.06.06-.1.12-.15.19"></path>
    <path fill="#3f4c52" d="m32.98 48.54-4.21-2.29c.05-.06.11-.12.17-.17l4.21 2.29c-.07.06-.12.11-.17.17"></path>
    <path fill="#404f55" d="m33.14 48.37-4.21-2.29c.06-.06.13-.11.2-.16l4.21 2.29c-.07.06-.14.11-.2.16"></path>
    <path fill="#445157" d="m33.34 48.22-4.21-2.29c.08-.06.17-.11.26-.15l4.21 2.29c-.09.04-.18.09-.26.15"></path>
    <path fill="#46545a" d="m33.6 48.07-4.21-2.29c.15-.07.31-.12.48-.14l4.21 2.29c-.17.02-.33.07-.48.14"></path>
  </g>
  <path fill="#5c6e76" d="M34.08 47.92c.89-.12 1.61.56 1.61 1.52 0 .97-.73 1.85-1.62 1.98-.9.13-1.62-.56-1.62-1.52 0-.97.73-1.85 1.63-1.98z"></path>
  <defs>
    <path id="m" d="m8.9 56.85-4.21-2.29c-.7-.38-1.16-1.16-1.16-2.12l4.21 2.29c0 .96.46 1.74 1.16 2.12z"></path>
  </defs>
  <clipPath id="n">
    <use xlink:href="#m" overflow="visible"></use>
  </clipPath>
  <g clip-path="url(#n)">
    <path fill="#686565" d="m8.9 56.85-4.21-2.29c-.7-.38-1.16-1.16-1.16-2.12l4.21 2.29c0 .96.46 1.74 1.16 2.12"></path>
  </g>
  <path fill="#8d8888" d="m7.75 49.31-4.22-2.3 52.66-7.4 4.22 2.3z"></path>
  <path fill="#aea9a9" d="m7.75 49.31 52.66-7.4-.01 5.42c0 1.49-1.12 2.86-2.51 3.05l-17.82 2.5-12.02 1.69-17.82 2.5c-1.38.19-2.5-.86-2.5-2.35l.02-5.41zm26.32 2.11c.89-.12 1.62-1.01 1.62-1.98 0-.96-.72-1.64-1.61-1.52-.9.13-1.62 1.01-1.63 1.97 0 .97.72 1.65 1.62 1.53"></path>
  <path fill="#666464" d="m7.74 54.73-4.22-2.3.01-5.42 4.22 2.3z"></path>
  <defs>
    <path id="o" d="M56.76 39.29 52.54 37c.31-.04.57-.36.57-.7l4.21 2.29c.01.34-.25.66-.56.7z"></path>
  </defs>
  <clipPath id="p">
    <use xlink:href="#o" overflow="visible"></use>
  </clipPath>
  <g clip-path="url(#p)">
    <path fill="#36484c" d="M56.76 39.29 52.54 37c.06-.01.11-.02.16-.05l4.21 2.29a.27.27 0 0 1-.15.05"></path>
    <path fill="#34464a" d="m56.92 39.25-4.21-2.29c.03-.02.06-.03.09-.05l4.21 2.29c-.03.01-.06.03-.09.05"></path>
    <path fill="#334448" d="M57.01 39.19 52.8 36.9c.02-.02.05-.04.07-.06l4.21 2.29c-.02.03-.04.04-.07.06"></path>
    <path fill="#314245" d="m57.08 39.14-4.21-2.29.06-.06 4.21 2.29-.06.06"></path>
    <path fill="#2f4043" d="m57.14 39.08-4.21-2.29a.18.18 0 0 0 .05-.07l4.21 2.29c-.01.02-.03.05-.05.07"></path>
    <path fill="#2e3d41" d="m57.19 39.01-4.21-2.29c.02-.02.03-.05.05-.08l4.21 2.29c-.01.03-.03.06-.05.08"></path>
    <path fill="#2c3b3f" d="m57.24 38.93-4.21-2.29a.3.3 0 0 0 .04-.1l4.21 2.29a.3.3 0 0 1-.04.1"></path>
    <path fill="#2b393c" d="m57.28 38.84-4.21-2.29c.03-.08.04-.16.04-.24l4.21 2.29c.01.08-.01.16-.04.24"></path>
  </g>
  <defs>
    <path id="q" d="m45.48 31.57 4.21 2.29c.19.1.31.29.31.52 0 .39-.35.75-.77.81l-4.21-2.29c.42-.06.77-.42.77-.81 0-.23-.12-.42-.31-.52z"></path>
  </defs>
  <clipPath id="r">
    <use xlink:href="#q" overflow="visible"></use>
  </clipPath>
  <g clip-path="url(#r)">
    <path fill="#9d9fa2" d="m49.23 35.19-4.21-2.29c.09-.01.18-.04.26-.08l4.21 2.29a.72.72 0 0 1-.26.08"></path>
    <path fill="#999b9d" d="m49.5 35.11-4.21-2.29c.05-.02.09-.05.14-.08l4.21 2.29c-.05.03-.1.06-.14.08"></path>
    <path fill="#949798" d="m49.63 35.03-4.21-2.29a.7.7 0 0 0 .1-.08l4.21 2.29c-.03.03-.06.06-.1.08"></path>
    <path fill="#8f9393" d="m49.73 34.96-4.21-2.29c.03-.02.05-.05.07-.08l4.21 2.29c-.02.03-.05.05-.07.08"></path>
    <path fill="#8c8e8e" d="m49.8 34.88-4.21-2.29c.02-.03.04-.05.06-.08l4.21 2.29c-.02.03-.04.06-.06.08"></path>
    <path fill="#868889" d="m49.86 34.8-4.21-2.29c.02-.03.04-.06.05-.08l4.21 2.29c-.01.03-.03.06-.05.08"></path>
    <path fill="#818484" d="m49.92 34.72-4.21-2.29c.02-.03.03-.07.05-.1l4.21 2.29c-.02.03-.04.07-.05.1"></path>
    <path fill="#7d7f80" d="m49.96 34.62-4.21-2.29c.03-.08.04-.16.04-.24 0-.23-.12-.42-.31-.52l4.21 2.29c.19.1.31.29.31.52.01.08-.01.16-.04.24"></path>
  </g>
  <defs>
    <path id="s" d="m45.48 31.57 4.21 2.29a.778.778 0 0 0-.46-.08l-4.21-2.29c.17-.02.33.01.46.08z"></path>
  </defs>
  <clipPath id="t">
    <use xlink:href="#s" overflow="visible"></use>
  </clipPath>
  <g clip-path="url(#t)">
    <path fill="#387465" d="m49.24 33.78-4.21-2.29c.11-.02.21-.01.3.02l4.21 2.29a.75.75 0 0 0-.3-.02"></path>
    <path fill="#367162" d="m49.54 33.8-4.21-2.29c.05.01.09.03.13.05l4.21 2.29a.502.502 0 0 0-.13-.05"></path>
    <path fill="#356e5f" d="m49.67 33.85-4.21-2.29c.01 0 .02.01.02.01l4.21 2.29c0-.01-.01-.01-.02-.01"></path>
  </g>
  <defs>
    <path id="u" d="m45.97 31.27-4.21-2.29c.24-.03.44-.28.44-.54l4.21 2.29c0 .26-.2.5-.44.54z"></path>
  </defs>
  <clipPath id="v">
    <use xlink:href="#u" overflow="visible"></use>
  </clipPath>
  <g clip-path="url(#v)">
    <path fill="#9d9fa2" d="m45.97 31.27-4.21-2.29c.04-.01.09-.02.13-.04l4.21 2.29c-.04.02-.09.03-.13.04"></path>
    <path fill="#999b9d" d="m46.1 31.23-4.21-2.29c.02-.01.05-.02.07-.04l4.21 2.29c-.03.02-.05.03-.07.04"></path>
    <path fill="#949798" d="m46.17 31.19-4.21-2.29c.02-.01.04-.03.05-.04l4.21 2.29c-.02.01-.04.03-.05.04"></path>
    <path fill="#8f9393" d="M46.22 31.15 42 28.86c.02-.01.03-.03.04-.04l4.21 2.29c0 .01-.02.03-.03.04"></path>
    <path fill="#8c8e8e" d="m46.26 31.1-4.21-2.29c.01-.02.03-.03.04-.05l4.21 2.29c-.01.02-.02.04-.04.05"></path>
    <path fill="#868889" d="m46.3 31.05-4.21-2.29c.01-.02.03-.04.04-.06l4.21 2.3c-.01.02-.03.04-.04.05"></path>
    <path fill="#818484" d="m46.34 31-4.21-2.29c.01-.02.02-.05.03-.07l4.21 2.29c-.01.02-.02.04-.03.07"></path>
    <path fill="#7d7f80" d="m46.37 30.92-4.21-2.29c.02-.06.03-.13.03-.19l4.21 2.29c.01.06-.01.13-.03.19"></path>
  </g>
  <path fill="#abadad" d="m43.87 31.56-4.21-2.29 2.09-.29 4.22 2.29z"></path>
  <defs>
    <path id="w" d="m43.64 31.52-4.21-2.29c.07.04.15.05.24.04l4.21 2.29c-.09.02-.18 0-.24-.04z"></path>
  </defs>
  <clipPath id="x">
    <use xlink:href="#w" overflow="visible"></use>
  </clipPath>
  <g clip-path="url(#x)">
    <path fill="#949798" d="m43.64 31.52-4.21-2.29s.01 0 .01.01l4.21 2.29s-.01 0-.01-.01"></path>
    <path fill="#999b9d" d="m43.65 31.53-4.21-2.29c.02.01.05.02.07.03l4.21 2.29c-.02-.01-.05-.02-.07-.03"></path>
    <path fill="#9d9fa2" d="m43.72 31.56-4.21-2.29c.05.01.1.02.15.01l4.21 2.29c-.05 0-.1 0-.15-.01"></path>
  </g>
  <path fill="#29373a" d="m57.33 38.6-4.22-2.29.06-32.46 4.22 2.3z"></path>
  <defs>
    <path id="y" d="m43.64 31.52-4.21-2.29a.437.437 0 0 1-.21-.38l4.21 2.29c0 .18.08.31.21.38z"></path>
  </defs>
  <clipPath id="z">
    <use xlink:href="#y" overflow="visible"></use>
  </clipPath>
  <g clip-path="url(#z)">
    <path fill="#837146" d="m43.64 31.52-4.21-2.29a.437.437 0 0 1-.21-.38l4.21 2.29c0 .18.08.31.21.38"></path>
  </g>
  <defs>
    <path id="A" d="m52.91 3.37 4.21 2.29c.16.09.26.26.26.48l-4.21-2.29c0-.22-.1-.39-.26-.48z"></path>
  </defs>
  <clipPath id="B">
    <use xlink:href="#A" overflow="visible"></use>
  </clipPath>
  <g clip-path="url(#B)">
    <path fill="#2b393c" d="m57.39 6.15-4.21-2.29c0-.22-.11-.4-.26-.48l4.21 2.29c.15.08.26.26.26.48"></path>
  </g>
  <defs>
    <path id="C" d="m52.91 3.37 4.21 2.29c-.09-.05-.19-.07-.3-.05L52.6 3.32c.12-.02.22 0 .31.05z"></path>
  </defs>
  <clipPath id="D">
    <use xlink:href="#C" overflow="visible"></use>
  </clipPath>
  <g clip-path="url(#D)">
    <path fill="#9d9fa2" d="M56.82 5.61 52.6 3.32c.07-.01.14-.01.2.01l4.21 2.29c-.06-.01-.12-.02-.19-.01"></path>
    <path fill="#999b9d" d="M57.01 5.62 52.8 3.33l.09.03 4.21 2.29a.465.465 0 0 0-.09-.03"></path>
    <path fill="#949798" d="M57.11 5.65 52.9 3.36c.01 0 .01.01.02.01l4.21 2.29c-.01 0-.02 0-.02-.01"></path>
  </g>
  <defs>
    <path id="E" d="m55.1.25 4.21 2.29c-.39-.21-.84-.3-1.34-.23L53.76.02c.5-.07.95.02 1.34.23z"></path>
  </defs>
  <clipPath id="F">
    <use xlink:href="#E" overflow="visible"></use>
  </clipPath>
  <g clip-path="url(#F)">
    <path fill="#36484c" d="M57.98 2.32 53.77.03c.3-.04.6-.03.86.04l4.21 2.29a2.06 2.06 0 0 0-.86-.04"></path>
    <path fill="#34464a" d="M58.84 2.36 54.63.07c.14.04.27.08.4.15l4.21 2.29c-.13-.07-.26-.11-.4-.15"></path>
    <path fill="#334448" d="M59.24 2.51 55.03.22c.03.01.05.03.08.04l4.21 2.29c-.03-.02-.06-.03-.08-.04"></path>
  </g>
  <defs>
    <path id="G" d="m40.56 32.03-4.21-2.29c.24-.03.44-.28.44-.54L41 31.49c0 .26-.2.51-.44.54z"></path>
  </defs>
  <clipPath id="H">
    <use xlink:href="#G" overflow="visible"></use>
  </clipPath>
  <g clip-path="url(#H)">
    <path fill="#9d9fa2" d="m40.56 32.03-4.21-2.29c.04-.01.08-.02.12-.04l4.21 2.29c-.03.02-.08.03-.12.04"></path>
    <path fill="#999b9d" d="m40.69 31.99-4.21-2.29c.02-.01.05-.03.07-.04l4.21 2.29c-.03.02-.05.03-.07.04"></path>
    <path fill="#949798" d="m40.76 31.95-4.21-2.29c.02-.01.04-.03.05-.04l4.21 2.29c-.02.01-.04.03-.05.04"></path>
    <path fill="#8f9393" d="m40.81 31.91-4.21-2.29c.02-.01.03-.03.05-.05l4.21 2.29-.05.05"></path>
    <path fill="#8c8e8e" d="m40.85 31.86-4.21-2.29c.01-.02.03-.03.04-.05l4.21 2.29c-.01.02-.02.04-.04.05"></path>
    <path fill="#868889" d="m40.9 31.81-4.21-2.29c.01-.02.03-.04.04-.06l4.21 2.29a.21.21 0 0 0-.04.06"></path>
    <path fill="#818484" d="m40.93 31.75-4.21-2.29c.01-.02.02-.05.03-.08l4.21 2.29c0 .03-.01.06-.03.08"></path>
    <path fill="#7d7f80" d="m40.97 31.68-4.21-2.29c.02-.06.03-.12.03-.19L41 31.49c0 .06-.01.13-.03.19"></path>
  </g>
  <path fill="#7b7d7e" d="m46.41 30.73-4.22-2.29.02-10.11 4.22 2.29z"></path>
  <defs>
    <path id="I" d="m42.01 17.96 4.21 2.29c.12.07.2.2.2.37l-4.21-2.29c0-.16-.08-.3-.2-.37z"></path>
  </defs>
  <clipPath id="J">
    <use xlink:href="#I" overflow="visible"></use>
  </clipPath>
  <g clip-path="url(#J)">
    <path fill="#7d7f80" d="m46.43 20.62-4.21-2.29c0-.17-.08-.3-.2-.37l4.21 2.29c.11.07.2.21.2.37"></path>
  </g>
  <defs>
    <path id="K" d="m42.01 17.96 4.21 2.29c-.07-.04-.15-.05-.23-.04l-4.21-2.29c.08-.01.16.01.23.04z"></path>
  </defs>
  <clipPath id="L">
    <use xlink:href="#K" overflow="visible"></use>
  </clipPath>
  <g clip-path="url(#L)">
    <path fill="#a68f57" d="m45.99 20.21-4.21-2.29c.05-.01.1 0 .15.01l4.21 2.29c-.05-.01-.1-.01-.15-.01"></path>
    <path fill="#a18b54" d="m46.14 20.22-4.21-2.29c.02.01.05.01.07.03l4.21 2.29c-.02-.01-.05-.02-.07-.03"></path>
    <path fill="#9c8753" d="M46.21 20.25 42 17.96s.01 0 .01.01l4.21 2.29c0-.01-.01-.01-.01-.01"></path>
  </g>
  <path fill="#abadad" d="m38.46 32.32-4.22-2.29 2.11-.29 4.21 2.29z"></path>
  <defs>
    <path id="M" d="m38.23 32.28-4.21-2.29c.07.04.15.05.23.04l4.21 2.29c-.09.02-.17 0-.23-.04z"></path>
  </defs>
  <clipPath id="N">
    <use xlink:href="#M" overflow="visible"></use>
  </clipPath>
  <g clip-path="url(#N)">
    <path fill="#949798" d="m38.23 32.28-4.21-2.29s.01 0 .01.01l4.21 2.29s-.01 0-.01-.01"></path>
    <path fill="#999b9d" d="M38.24 32.29 34.03 30c.02.01.04.02.07.03l4.21 2.29c-.02-.01-.05-.02-.07-.03"></path>
    <path fill="#9d9fa2" d="m38.31 32.32-4.21-2.29c.05.01.1.02.15.01l4.21 2.29c-.05 0-.1 0-.15-.01"></path>
  </g>
  <defs>
    <path id="O" d="m38.23 32.28-4.21-2.29a.43.43 0 0 1-.2-.38l4.21 2.29c-.01.18.07.32.2.38z"></path>
  </defs>
  <clipPath id="P">
    <use xlink:href="#O" overflow="visible"></use>
  </clipPath>
  <g clip-path="url(#P)">
    <path fill="#245a71" d="m38.23 32.28-4.21-2.29a.43.43 0 0 1-.2-.38l4.21 2.29c-.01.18.07.32.2.38"></path>
  </g>
  <path fill="#b0995d" d="m43.89 20.51-4.21-2.29 2.09-.3 4.22 2.29z"></path>
  <path fill="#817044" d="m43.43 31.15-4.22-2.3.02-10.1 4.22 2.29z"></path>
  <defs>
    <path id="Q" d="m43.45 21.04-4.21-2.29c0-.26.2-.5.45-.53l4.21 2.29c-.25.03-.45.28-.45.53z"></path>
  </defs>
  <clipPath id="R">
    <use xlink:href="#Q" overflow="visible"></use>
  </clipPath>
  <g clip-path="url(#R)">
    <path fill="#837146" d="m43.45 21.04-4.21-2.29c0-.06.01-.12.03-.18l4.21 2.29c-.02.06-.03.12-.03.18"></path>
    <path fill="#887547" d="m43.48 20.86-4.21-2.29c.01-.03.02-.05.03-.07l4.21 2.29c-.01.02-.02.05-.03.07"></path>
    <path fill="#8d7b4a" d="M43.51 20.79 39.3 18.5a.21.21 0 0 1 .04-.06l4.21 2.29c-.01.02-.02.04-.04.06"></path>
    <path fill="#927e4d" d="m43.55 20.73-4.21-2.29c.01-.02.03-.03.04-.05l4.21 2.29c-.01.02-.03.03-.04.05"></path>
    <path fill="#97824f" d="m43.59 20.68-4.21-2.29c.01-.02.03-.03.05-.05l4.21 2.29-.05.05"></path>
    <path fill="#9c8753" d="m43.64 20.63-4.21-2.29c.02-.02.04-.03.05-.04l4.21 2.29c-.02.01-.04.03-.05.04"></path>
    <path fill="#a18b54" d="m43.69 20.59-4.21-2.29c.02-.02.05-.03.07-.04l4.21 2.29c-.02.01-.05.02-.07.04"></path>
    <path fill="#a68f57" d="m43.76 20.55-4.21-2.29c.04-.02.08-.03.13-.04l4.21 2.29c-.04.01-.08.02-.13.04"></path>
  </g>
  <path fill="#dbbd73" d="M45.99 20.21c.24-.03.44.15.44.41l-.02 10.1c0 .26-.19.51-.44.54l-2.1.29c-.24.03-.44-.15-.44-.42l.02-10.1c0-.26.2-.5.45-.53l2.09-.29z"></path>
  <defs>
    <path id="S" d="m35.15 32.79-4.21-2.29c.24-.03.44-.28.45-.54l4.21 2.29c-.01.26-.21.51-.45.54z"></path>
  </defs>
  <clipPath id="T">
    <use xlink:href="#S" overflow="visible"></use>
  </clipPath>
  <g clip-path="url(#T)">
    <path fill="#9d9fa2" d="m35.15 32.79-4.21-2.29c.04-.01.09-.02.13-.04l4.21 2.29c-.04.02-.09.03-.13.04"></path>
    <path fill="#999b9d" d="m35.28 32.75-4.21-2.29c.03-.01.05-.03.07-.04l4.21 2.29c-.02.02-.05.03-.07.04"></path>
    <path fill="#949798" d="m35.35 32.71-4.21-2.29c.02-.01.04-.03.05-.04l4.21 2.29c-.01.01-.03.03-.05.04"></path>
    <path fill="#8f9393" d="m35.4 32.67-4.21-2.29c.02-.01.03-.03.05-.05l4.21 2.29c-.01.02-.03.03-.05.05"></path>
    <path fill="#8c8e8e" d="m35.45 32.62-4.21-2.29c.01-.02.03-.03.04-.05l4.21 2.29c-.01.02-.03.03-.04.05"></path>
    <path fill="#868889" d="m35.49 32.57-4.21-2.29c.01-.02.03-.04.04-.06l4.21 2.29c-.01.02-.03.04-.04.06"></path>
    <path fill="#818484" d="m35.53 32.51-4.21-2.29c.01-.02.02-.05.03-.08l4.21 2.29c-.01.03-.02.06-.03.08"></path>
    <path fill="#7d7f80" d="m35.56 32.44-4.21-2.29c.02-.06.03-.12.03-.19l4.21 2.29c0 .06-.01.13-.03.19"></path>
  </g>
  <path fill="#7b7d7e" d="m41 31.49-4.21-2.29.02-12.14 4.21 2.29z"></path>
  <defs>
    <path id="U" d="m36.6 16.69 4.21 2.29c.12.07.21.2.21.37l-4.21-2.29c0-.16-.08-.3-.21-.37z"></path>
  </defs>
  <clipPath id="V">
    <use xlink:href="#U" overflow="visible"></use>
  </clipPath>
  <g clip-path="url(#V)">
    <path fill="#7d7f80" d="m41.02 19.35-4.21-2.29c0-.17-.08-.3-.21-.37l4.21 2.29c.13.07.21.21.21.37"></path>
  </g>
  <path fill="#abadad" d="m33.05 33.08-4.21-2.29 2.09-.29 4.22 2.29z"></path>
  <defs>
    <path id="W" d="m36.6 16.69 4.21 2.29c-.07-.04-.15-.05-.23-.04l-4.21-2.29c.09-.01.16.01.23.04z"></path>
  </defs>
  <clipPath id="X">
    <use xlink:href="#W" overflow="visible"></use>
  </clipPath>
  <g clip-path="url(#X)">
    <path fill="#2f7390" d="m40.59 18.94-4.21-2.29c.05-.01.1 0 .15.01l4.21 2.29c-.05-.01-.1-.01-.15-.01"></path>
    <path fill="#2c6f8b" d="m40.73 18.95-4.21-2.29c.02.01.05.01.07.03l4.21 2.29a.488.488 0 0 0-.07-.03"></path>
    <path fill="#2b6b87" d="m40.8 18.98-4.21-2.29s.01 0 .01.01l4.21 2.29c0-.01 0-.01-.01-.01"></path>
  </g>
  <defs>
    <path id="Y" d="m32.82 33.04-4.21-2.29c.07.04.15.05.24.04l4.21 2.29c-.09.02-.17 0-.24-.04z"></path>
  </defs>
  <clipPath id="Z">
    <use xlink:href="#Y" overflow="visible"></use>
  </clipPath>
  <g clip-path="url(#Z)">
    <path fill="#949798" d="m32.82 33.04-4.21-2.29s.01 0 .01.01l4.21 2.29s-.01 0-.01-.01"></path>
    <path fill="#999b9d" d="m32.83 33.05-4.21-2.29c.02.01.05.02.07.03l4.21 2.29c-.02-.01-.05-.02-.07-.03"></path>
    <path fill="#9d9fa2" d="m32.9 33.08-4.21-2.29c.05.01.1.02.15.01l4.21 2.29c-.05 0-.1 0-.15-.01"></path>
  </g>
  <defs>
    <path id="aa" d="m32.82 33.04-4.21-2.29a.437.437 0 0 1-.21-.38l4.21 2.29c0 .18.08.32.21.38z"></path>
  </defs>
  <clipPath id="ab">
    <use xlink:href="#aa" overflow="visible"></use>
  </clipPath>
  <g clip-path="url(#ab)">
    <path fill="#78653a" d="m32.82 33.04-4.21-2.29a.437.437 0 0 1-.21-.38l4.21 2.29c0 .18.08.32.21.38"></path>
  </g>
  <path fill="#23596f" d="m38.02 31.91-4.21-2.3.02-12.13 4.22 2.29z"></path>
  <path fill="#7b7d7e" d="m35.59 32.25-4.21-2.3.01-5.36 4.21 2.29z"></path>
  <defs>
    <path id="ac" d="m31.19 24.22 4.21 2.29c.12.07.2.2.2.37l-4.21-2.29c0-.17-.08-.3-.2-.37z"></path>
  </defs>
  <clipPath id="ad">
    <use xlink:href="#ac" overflow="visible"></use>
  </clipPath>
  <g clip-path="url(#ad)">
    <path fill="#7d7f80" d="m35.6 26.88-4.21-2.29c0-.17-.08-.3-.2-.37l4.21 2.29c.12.07.2.21.2.37"></path>
  </g>
  <defs>
    <path id="ae" d="m31.19 24.22 4.21 2.29a.385.385 0 0 0-.24-.04l-4.21-2.29c.09-.01.17.01.24.04z"></path>
  </defs>
  <clipPath id="af">
    <use xlink:href="#ae" overflow="visible"></use>
  </clipPath>
  <g clip-path="url(#af)">
    <path fill="#988049" d="m35.16 26.48-4.21-2.29c.06-.01.11 0 .16.01l4.21 2.29a.286.286 0 0 0-.16-.01"></path>
    <path fill="#947c46" d="m35.32 26.48-4.21-2.29c.02.01.05.02.07.03l4.21 2.29c-.02-.01-.05-.02-.07-.03"></path>
    <path fill="#8f7744" d="m35.39 26.51-4.21-2.29s.01 0 .01.01l4.21 2.29c0-.01-.01-.01-.01-.01"></path>
  </g>
  <path fill="#307b9a" d="m38.48 19.24-4.21-2.29 2.1-.3 4.22 2.29z"></path>
  <defs>
    <path id="ag" d="m39.97 16.18-4.21-2.29c.03.02.06.02.09.02.08-.01.15-.08.17-.18l4.21 2.29c-.02.1-.09.16-.17.18-.03 0-.06 0-.09-.02z"></path>
  </defs>
  <clipPath id="ah">
    <use xlink:href="#ag" overflow="visible"></use>
  </clipPath>
  <g clip-path="url(#ah)">
    <path fill="#949798" d="m39.97 16.18-4.21-2.29 4.22 2.29h-.01"></path>
    <path fill="#999b9d" d="m39.98 16.18-4.21-2.29c.01 0 .02.01.03.01l4.2 2.29c-.01 0-.02 0-.02-.01"></path>
    <path fill="#9d9fa2" d="m40 16.19-4.21-2.29c.02 0 .04.01.06 0 .02 0 .03-.01.05-.01l4.21 2.29c-.02.01-.03.01-.05.02-.02 0-.04 0-.06-.01"></path>
    <path fill="#999b9d" d="m40.11 16.18-4.21-2.29c.01 0 .02-.01.03-.02l4.21 2.29c-.01.01-.02.02-.03.02"></path>
    <path fill="#949798" d="m40.14 16.17-4.21-2.29c.01 0 .01-.01.02-.02l4.21 2.29-.02.02"></path>
    <path fill="#8f9393" d="m40.16 16.15-4.21-2.29.02-.02 4.21 2.29-.02.02"></path>
    <path fill="#8c8e8e" d="m40.18 16.13-4.21-2.29.02-.02 4.21 2.29-.02.02"></path>
    <path fill="#868889" d="m40.19 16.11-4.21-2.29c0-.01.01-.01.01-.02l4.21 2.29c0 .01 0 .02-.01.02"></path>
    <path fill="#818484" d="M40.21 16.09 36 13.8c0-.01.01-.02.01-.03l4.21 2.29c0 .01-.01.02-.01.03"></path>
    <path fill="#7d7f80" d="M40.22 16.06 36 13.77c0-.01.01-.03.01-.04l4.21 2.29c.01.02 0 .03 0 .04"></path>
  </g>
  <defs>
    <path id="ai" d="m39.97 16.18-4.21-2.29c-.01 0-.01-.01-.02-.01l4.21 2.29c.01.01.02.01.02.01z"></path>
  </defs>
  <clipPath id="aj">
    <use xlink:href="#ai" overflow="visible"></use>
  </clipPath>
  <g clip-path="url(#aj)">
    <path fill="#374247" d="m39.97 16.18-4.21-2.29c-.01 0-.01-.01-.02-.01l4.21 2.29c.01.01.02.01.02.01"></path>
  </g>
  <defs>
    <path id="ak" d="m38.05 19.77-4.21-2.29c0-.26.19-.5.44-.53l4.21 2.29c-.25.03-.44.28-.44.53z"></path>
  </defs>
  <clipPath id="al">
    <use xlink:href="#ak" overflow="visible"></use>
  </clipPath>
  <g clip-path="url(#al)">
    <path fill="#245a71" d="m38.05 19.77-4.21-2.29c0-.06.01-.13.03-.18l4.21 2.29c-.02.06-.03.12-.03.18"></path>
    <path fill="#255e76" d="m38.08 19.59-4.21-2.29c.01-.03.02-.05.03-.07l4.21 2.29c-.01.02-.02.04-.03.07"></path>
    <path fill="#27617a" d="m38.11 19.51-4.21-2.29a.21.21 0 0 1 .04-.06l4.21 2.29c-.01.02-.03.04-.04.06"></path>
    <path fill="#28657e" d="m38.15 19.46-4.21-2.29c.01-.02.03-.03.04-.05l4.21 2.29c-.02.01-.03.03-.04.05"></path>
    <path fill="#296883" d="m38.19 19.41-4.21-2.29c.01-.02.03-.03.04-.05l4.21 2.29c-.01.01-.03.03-.04.05"></path>
    <path fill="#2b6b87" d="m38.23 19.36-4.21-2.29c.02-.02.03-.03.05-.04l4.21 2.29c-.01.01-.03.03-.05.04"></path>
    <path fill="#2c6f8b" d="m38.29 19.32-4.21-2.29c.02-.02.05-.03.07-.04l4.21 2.29c-.03.01-.05.02-.07.04"></path>
    <path fill="#2f7390" d="m38.36 19.28-4.21-2.29c.04-.02.08-.03.13-.04l4.21 2.29c-.05.01-.09.02-.13.04"></path>
  </g>
  <defs>
    <path id="am" d="m29.74 33.55-4.21-2.29c.24-.03.44-.28.44-.54l4.21 2.29c0 .26-.19.5-.44.54z"></path>
  </defs>
  <clipPath id="an">
    <use xlink:href="#am" overflow="visible"></use>
  </clipPath>
  <g clip-path="url(#an)">
    <path fill="#9d9fa2" d="m29.74 33.55-4.21-2.29c.04-.01.09-.02.13-.04l4.21 2.29c-.04.02-.08.03-.13.04"></path>
    <path fill="#999b9d" d="m29.87 33.51-4.21-2.29c.02-.01.05-.02.07-.04l4.21 2.29c-.02.02-.05.03-.07.04"></path>
    <path fill="#949798" d="m29.94 33.47-4.21-2.29c.02-.01.04-.03.05-.04l4.21 2.29c-.01.01-.03.03-.05.04"></path>
    <path fill="#8f9393" d="m29.99 33.43-4.21-2.29c.02-.01.03-.03.04-.04l4.21 2.29c-.01.01-.02.03-.04.04"></path>
    <path fill="#8c8e8e" d="m30.04 33.38-4.21-2.29c.01-.02.03-.03.04-.05l4.21 2.29c-.02.02-.03.04-.04.05"></path>
    <path fill="#868889" d="m30.08 33.33-4.21-2.29c.01-.02.03-.04.04-.06l4.21 2.29c-.02.03-.03.05-.04.06"></path>
    <path fill="#818484" d="m30.11 33.28-4.21-2.29c.01-.02.02-.05.03-.07l4.21 2.29c0 .02-.01.04-.03.07"></path>
    <path fill="#7d7f80" d="m30.15 33.2-4.21-2.29c.02-.06.03-.13.03-.19l4.21 2.29c0 .06-.01.13-.03.19"></path>
  </g>
  <path fill="#7f8081" d="m40.23 16.02-4.21-2.29.4-2.77 4.21 2.3z"></path>
  <path fill="#354045" d="m39.96 16.17-4.22-2.29-.67-.51 4.21 2.3z"></path>
  <defs>
    <path id="ao" d="M36.42 10.96c.01-.08-.02-.14-.08-.17l4.21 2.29c.05.03.09.09.08.17-1.26-.68-2.95-1.6-4.21-2.29z"></path>
  </defs>
  <clipPath id="ap">
    <use xlink:href="#ao" overflow="visible"></use>
  </clipPath>
  <g clip-path="url(#ap)">
    <path fill="#7d7f80" d="m40.63 13.26-4.21-2.29c.01-.08-.02-.14-.08-.17l4.21 2.29c.06.02.1.09.08.17"></path>
  </g>
  <path fill="#a2884e" d="m33.06 26.77-4.21-2.29 2.1-.3 4.21 2.3z"></path>
  <defs>
    <path id="aq" d="m36.34 10.79 4.21 2.29a.292.292 0 0 0-.09-.02l-4.21-2.29a.2.2 0 0 1 .09.02z"></path>
  </defs>
  <clipPath id="ar">
    <use xlink:href="#aq" overflow="visible"></use>
  </clipPath>
  <g clip-path="url(#ar)">
    <path fill="#46545a" d="m40.47 13.07-4.21-2.29h.06l4.21 2.29h-.06"></path>
    <path fill="#445157" d="m40.53 13.07-4.21-2.29c.01 0 .02.01.03.01l4.21 2.29c-.02 0-.02-.01-.03-.01"></path>
    <path fill="#404f55" d="m40.55 13.08-4.21-2.29 4.22 2.29h-.01"></path>
  </g>
  <defs>
    <path id="as" d="M40.41 13.09 36.2 10.8c.02-.01.04-.02.06-.02l4.21 2.29c-.02 0-.04.01-.06.02z"></path>
  </defs>
  <clipPath id="at">
    <use xlink:href="#as" overflow="visible"></use>
  </clipPath>
  <g clip-path="url(#at)">
    <path fill="#445157" d="m40.41 13.09-4.21-2.3h.01l4.21 2.29-.01.01"></path>
    <path fill="#46545a" d="m40.42 13.08-4.21-2.29c.02-.01.03-.01.05-.01l4.21 2.29c-.02 0-.03 0-.05.01"></path>
  </g>
  <path fill="#766239" d="m32.61 32.67-4.21-2.3.01-5.36 4.21 2.29z"></path>
  <defs>
    <path id="au" d="m32.62 27.3-4.21-2.29c0-.26.2-.5.45-.53l4.21 2.29c-.25.03-.45.27-.45.53z"></path>
  </defs>
  <clipPath id="av">
    <use xlink:href="#au" overflow="visible"></use>
  </clipPath>
  <g clip-path="url(#av)">
    <path fill="#78653a" d="m32.62 27.3-4.21-2.29c0-.06.01-.13.03-.18l4.21 2.29c-.02.06-.03.12-.03.18"></path>
    <path fill="#7d693c" d="m32.65 27.12-4.21-2.29c.01-.03.02-.05.03-.07l4.21 2.29c-.01.02-.02.04-.03.07"></path>
    <path fill="#816d3f" d="m32.69 27.05-4.21-2.29a.21.21 0 0 1 .04-.06l4.21 2.29c-.02.02-.03.04-.04.06"></path>
    <path fill="#866f40" d="m32.72 26.99-4.21-2.29c.01-.02.03-.03.04-.05l4.21 2.29c-.01.02-.03.03-.04.05"></path>
    <path fill="#8a7342" d="m32.76 26.94-4.21-2.29c.01-.02.03-.03.04-.05l4.21 2.29c-.01.02-.03.03-.04.05"></path>
    <path fill="#8f7744" d="M32.81 26.89 28.6 24.6c.02-.02.04-.03.05-.04l4.21 2.29c-.02.01-.04.03-.05.04"></path>
    <path fill="#947c46" d="m32.86 26.85-4.21-2.29c.02-.02.05-.03.07-.04l4.21 2.29c-.02.01-.05.03-.07.04"></path>
    <path fill="#988049" d="m32.93 26.81-4.21-2.29c.04-.02.09-.03.13-.04l4.21 2.29c-.04.01-.09.02-.13.04"></path>
  </g>
  <path fill="#959899" d="m34.45 22.16-4.21-2.3 4.83-6.49 4.21 2.3z"></path>
  <defs>
    <path id="aw" d="M29.91 20.06c.12-.02.24-.09.33-.2l4.21 2.29c-.08.11-.21.18-.33.2-1.4-.76-2.81-1.52-4.21-2.29z"></path>
  </defs>
  <clipPath id="ax">
    <use xlink:href="#aw" overflow="visible"></use>
  </clipPath>
  <g clip-path="url(#ax)">
    <path fill="#9d9fa2" d="m33.96 22.35-4.21-2.29c.05.01.1.02.16.01.04-.01.09-.02.13-.04l4.21 2.29c-.04.02-.09.03-.13.04-.05 0-.11 0-.16-.01"></path>
    <path fill="#999b9d" d="m34.25 22.31-4.21-2.29c.03-.01.05-.03.08-.04l4.21 2.29c-.02.02-.05.03-.08.04"></path>
    <path fill="#949798" d="m34.33 22.27-4.21-2.29c.02-.01.04-.03.05-.04l4.21 2.29c-.01.01-.03.03-.05.04"></path>
    <path fill="#8f9393" d="m34.39 22.23-4.21-2.29.04-.04 4.21 2.29c-.02.01-.03.02-.04.04"></path>
    <path fill="#8c8e8e" d="m34.43 22.18-4.21-2.29c.01-.01.02-.02.02-.03l4.21 2.29c-.01.02-.01.03-.02.03"></path>
  </g>
  <path fill="#abadad" d="m27.65 33.84-4.22-2.29 2.1-.29 4.21 2.29z"></path>
  <defs>
    <path id="ay" d="M29.66 20.02c.07.04.15.05.25.04 1.4.76 2.81 1.53 4.21 2.29-.09.01-.17 0-.25-.04-1.26-.69-2.94-1.6-4.21-2.29z"></path>
  </defs>
  <clipPath id="az">
    <use xlink:href="#ay" overflow="visible"></use>
  </clipPath>
  <g clip-path="url(#az)">
    <path fill="#949798" d="m33.88 22.31-4.21-2.29.01.01 4.21 2.29-.01-.01"></path>
    <path fill="#999b9d" d="m33.89 22.32-4.21-2.29c.02.01.05.02.07.03l4.21 2.29c-.02-.01-.04-.02-.07-.03"></path>
    <path fill="#9d9fa2" d="m33.96 22.35-4.21-2.29c.05.01.1.02.16.01.04-.01.09-.02.13-.04l4.21 2.29c-.04.02-.09.03-.13.04-.05 0-.11 0-.16-.01"></path>
  </g>
  <path fill="#354045" d="m38.6 15.16-4.21-2.29-.62-.45 4.22 2.29z"></path>
  <defs>
    <path id="aA" d="m33.88 22.31-4.21-2.29c-.01 0-.02-.01-.03-.02l4.21 2.29c.01.01.02.02.03.02z"></path>
  </defs>
  <clipPath id="aB">
    <use xlink:href="#aA" overflow="visible"></use>
  </clipPath>
  <g clip-path="url(#aB)">
    <path fill="#374247" d="m33.88 22.31-4.21-2.29c-.01 0-.02-.01-.03-.02l4.21 2.29c.01.01.02.02.03.02"></path>
  </g>
  <path fill="#49585f" d="m38.03 14.4-4.21-2.3 2.38-1.31 4.21 2.3z"></path>
  <defs>
    <path id="aC" d="m27.41 33.8-4.21-2.29c.07.04.15.05.24.04l4.21 2.29c-.09.02-.17 0-.24-.04z"></path>
  </defs>
  <clipPath id="aD">
    <use xlink:href="#aC" overflow="visible"></use>
  </clipPath>
  <g clip-path="url(#aD)">
    <path fill="#949798" d="m27.41 33.8-4.21-2.29s.01 0 .01.01l4.21 2.29-.01-.01"></path>
    <path fill="#999b9d" d="m27.42 33.81-4.21-2.29c.02.01.05.02.07.03l4.21 2.29a.488.488 0 0 0-.07-.03"></path>
    <path fill="#9d9fa2" d="m27.49 33.84-4.21-2.29c.05.01.1.02.15.01l4.21 2.29c-.05 0-.1 0-.15-.01"></path>
  </g>
  <defs>
    <path id="aE" d="m37.99 14.71-4.21-2.29c-.1-.07-.07-.25.05-.32l4.21 2.29c-.12.07-.15.25-.05.32z"></path>
  </defs>
  <clipPath id="aF">
    <use xlink:href="#aE" overflow="visible"></use>
  </clipPath>
  <g clip-path="url(#aF)">
    <path fill="#374247" d="m37.99 14.71-4.21-2.29a.182.182 0 0 1-.05-.21l4.21 2.29c-.03.08-.02.17.05.21"></path>
    <path fill="#39454a" d="m37.94 14.51-4.21-2.29c0-.01.01-.02.01-.03l4.21 2.29c0 .01-.01.02-.01.03"></path>
    <path fill="#3b474d" d="m37.95 14.48-4.21-2.29c0-.01.01-.01.01-.02l4.21 2.29c0 .01 0 .01-.01.02"></path>
    <path fill="#3d4a4f" d="m37.97 14.46-4.21-2.29c0-.01.01-.01.01-.02l4.21 2.29c-.01.01-.01.01-.01.02"></path>
    <path fill="#3f4c52" d="m37.98 14.44-4.21-2.29.02-.02L38 14.42l-.02.02"></path>
    <path fill="#404f55" d="m38 14.42-4.21-2.29.02-.02 4.21 2.29-.02.02"></path>
    <path fill="#445157" d="m38.02 14.41-4.21-2.29c.01 0 .01-.01.02-.01l4.21 2.29c-.01 0-.02 0-.02.01"></path>
  </g>
  <path fill="#424e55" d="m34.07 21.24-4.22-2.29 4.54-6.08 4.21 2.29z"></path>
  <defs>
    <path id="aG" d="m27.41 33.8-4.21-2.29a.437.437 0 0 1-.21-.38l4.21 2.29c0 .18.09.32.21.38z"></path>
  </defs>
  <clipPath id="aH">
    <use xlink:href="#aG" overflow="visible"></use>
  </clipPath>
  <g clip-path="url(#aH)">
    <path fill="#305f5a" d="m27.41 33.8-4.21-2.29a.437.437 0 0 1-.21-.38l4.21 2.29c0 .18.09.32.21.38"></path>
  </g>
  <path fill="#7b7d7e" d="m30.18 33.01-4.21-2.29.01-8.75 4.22 2.29z"></path>
  <defs>
    <path id="aI" d="m24.34 34.31-4.21-2.29c.24-.03.44-.28.44-.54l4.21 2.29c-.01.26-.2.5-.44.54z"></path>
  </defs>
  <clipPath id="aJ">
    <use xlink:href="#aI" overflow="visible"></use>
  </clipPath>
  <g clip-path="url(#aJ)">
    <path fill="#9d9fa2" d="m24.34 34.31-4.21-2.29c.04-.01.09-.02.13-.04l4.21 2.29c-.05.02-.09.03-.13.04"></path>
    <path fill="#999b9d" d="m24.46 34.27-4.21-2.29c.02-.01.05-.02.07-.04l4.21 2.29c-.02.02-.04.03-.07.04"></path>
    <path fill="#949798" d="m24.53 34.23-4.21-2.29c.02-.01.04-.03.05-.04l4.21 2.29c-.01.01-.03.03-.05.04"></path>
    <path fill="#8f9393" d="m24.59 34.19-4.21-2.29c.02-.01.03-.03.04-.04l4.21 2.29-.04.04"></path>
    <path fill="#8c8e8e" d="m24.63 34.14-4.21-2.29c.01-.02.03-.03.04-.05l4.21 2.29c-.01.02-.03.04-.04.05"></path>
    <path fill="#868889" d="m24.67 34.09-4.21-2.29c.01-.02.03-.04.04-.06l4.21 2.29c-.01.03-.03.05-.04.06"></path>
    <path fill="#818484" d="m24.71 34.04-4.21-2.29c.01-.02.02-.05.03-.07l4.21 2.29c-.01.02-.02.04-.03.07"></path>
    <path fill="#7d7f80" d="m24.74 33.96-4.21-2.29c.02-.06.03-.13.03-.19l4.21 2.29c0 .06-.01.13-.03.19"></path>
  </g>
  <defs>
    <path id="aK" d="m25.78 21.59 4.21 2.29c.12.07.2.21.2.38l-4.21-2.29a.43.43 0 0 0-.2-.38z"></path>
  </defs>
  <clipPath id="aL">
    <use xlink:href="#aK" overflow="visible"></use>
  </clipPath>
  <g clip-path="url(#aL)">
    <path fill="#7d7f80" d="m30.2 24.26-4.21-2.29a.43.43 0 0 0-.2-.38L30 23.88c.12.07.2.21.2.38"></path>
  </g>
  <defs>
    <path id="aM" d="m25.78 21.59 4.21 2.29c-.07-.04-.15-.05-.23-.04l-4.21-2.29c.08-.01.16.01.23.04z"></path>
  </defs>
  <clipPath id="aN">
    <use xlink:href="#aM" overflow="visible"></use>
  </clipPath>
  <g clip-path="url(#aN)">
    <path fill="#3d7873" d="m29.76 23.85-4.21-2.29c.05-.01.1 0 .15.01l4.21 2.29a.257.257 0 0 0-.15-.01"></path>
    <path fill="#3b756f" d="m29.91 23.85-4.21-2.29c.02.01.05.01.07.03l4.21 2.29c-.02-.01-.05-.02-.07-.03"></path>
    <path fill="#39716c" d="m29.98 23.88-4.21-2.29s.01 0 .01.01l4.21 2.29c0-.01-.01-.01-.01-.01"></path>
  </g>
  <path fill="#2e5d59" d="m27.2 33.43-4.21-2.3.02-8.74 4.21 2.29z"></path>
  <path fill="#7b7d7e" d="m24.77 33.77-4.21-2.29.01-3.34 4.21 2.3z"></path>
  <path fill="#abadad" d="m22.23 34.6-4.21-2.29 2.1-.29 4.22 2.29z"></path>
  <defs>
    <path id="aO" d="m20.37 27.77 4.21 2.29c.12.07.2.2.2.37l-4.21-2.29c0-.17-.08-.3-.2-.37z"></path>
  </defs>
  <clipPath id="aP">
    <use xlink:href="#aO" overflow="visible"></use>
  </clipPath>
  <g clip-path="url(#aP)">
    <path fill="#7d7f80" d="m24.78 30.44-4.21-2.29c0-.17-.08-.3-.2-.37l4.21 2.29c.12.06.2.2.2.37"></path>
  </g>
  <defs>
    <path id="aQ" d="m22.01 34.56-4.21-2.29c.07.04.15.05.23.04l4.21 2.29c-.09.02-.17 0-.23-.04z"></path>
  </defs>
  <clipPath id="aR">
    <use xlink:href="#aQ" overflow="visible"></use>
  </clipPath>
  <g clip-path="url(#aR)">
    <path fill="#949798" d="m22.01 34.56-4.21-2.29s.01 0 .01.01l4.21 2.29c-.01 0-.01 0-.01-.01"></path>
    <path fill="#999b9d" d="m22.02 34.57-4.21-2.29c.02.01.04.02.07.03l4.21 2.29c-.03-.01-.05-.02-.07-.03"></path>
    <path fill="#9d9fa2" d="m22.09 34.6-4.21-2.29c.05.01.1.01.15.01l4.21 2.29c-.06 0-.11 0-.15-.01"></path>
  </g>
  <path fill="#41817b" d="m27.67 24.14-4.22-2.29 2.1-.3 4.21 2.3z"></path>
  <defs>
    <path id="aS" d="m20.37 27.77 4.21 2.29a.385.385 0 0 0-.24-.04l-4.21-2.29c.09-.01.17.01.24.04z"></path>
  </defs>
  <clipPath id="aT">
    <use xlink:href="#aS" overflow="visible"></use>
  </clipPath>
  <g clip-path="url(#aT)">
    <path fill="#93433d" d="m24.34 30.02-4.21-2.29c.05-.01.11 0 .15.01l4.21 2.29c-.04-.01-.09-.01-.15-.01"></path>
    <path fill="#8e423b" d="m24.5 30.03-4.21-2.29c.02.01.05.01.07.03l4.21 2.29c-.02-.01-.05-.02-.07-.03"></path>
    <path fill="#8a4039" d="m24.57 30.06-4.21-2.29s.01 0 .01.01l4.21 2.29c0-.01-.01-.01-.01-.01"></path>
  </g>
  <defs>
    <path id="aU" d="m27.22 24.68-4.21-2.29c0-.26.2-.51.45-.54l4.21 2.29c-.25.03-.45.28-.45.54z"></path>
  </defs>
  <clipPath id="aV">
    <use xlink:href="#aU" overflow="visible"></use>
  </clipPath>
  <g clip-path="url(#aV)">
    <path fill="#305f5a" d="m27.22 24.68-4.21-2.29c0-.06.01-.13.03-.19l4.21 2.29c-.02.06-.03.13-.03.19"></path>
    <path fill="#31635e" d="m27.25 24.49-4.21-2.29c.01-.03.02-.05.03-.08l4.21 2.29c-.01.03-.02.06-.03.08"></path>
    <path fill="#326661" d="m27.29 24.42-4.21-2.29a.21.21 0 0 1 .04-.06l4.21 2.29c-.02.02-.03.04-.04.06"></path>
    <path fill="#356a65" d="m27.32 24.36-4.21-2.29c.01-.02.03-.03.04-.05l4.21 2.29c-.01.02-.02.03-.04.05"></path>
    <path fill="#386e68" d="m27.36 24.31-4.21-2.29c.01-.02.03-.03.05-.05l4.21 2.29-.05.05"></path>
    <path fill="#39716c" d="m27.41 24.26-4.21-2.29c.02-.02.04-.03.05-.04l4.21 2.29c-.01.01-.03.03-.05.04"></path>
    <path fill="#3b756f" d="m27.46 24.22-4.21-2.29c.02-.02.05-.03.07-.04l4.21 2.29c-.02.01-.04.02-.07.04"></path>
    <path fill="#3d7873" d="m27.54 24.18-4.21-2.29c.04-.02.08-.03.13-.04l4.21 2.29c-.05.01-.09.02-.13.04"></path>
  </g>
  <path fill="#abadad" d="m18.95 39.44-4.21-2.29 30.28-4.25 4.21 2.29z"></path>
  <defs>
    <path id="aW" d="m22.01 34.56-4.21-2.29a.437.437 0 0 1-.21-.38l4.21 2.29c0 .18.08.32.21.38z"></path>
  </defs>
  <clipPath id="aX">
    <use xlink:href="#aW" overflow="visible"></use>
  </clipPath>
  <g clip-path="url(#aX)">
    <path fill="#743631" d="m22.01 34.56-4.21-2.29a.437.437 0 0 1-.21-.38l4.21 2.29c0 .18.08.32.21.38"></path>
  </g>
  <defs>
    <path id="aY" d="m18.5 39.37-4.21-2.29c.13.07.28.1.46.07l4.21 2.29c-.18.03-.34 0-.46-.07z"></path>
  </defs>
  <clipPath id="aZ">
    <use xlink:href="#aY" overflow="visible"></use>
  </clipPath>
  <g clip-path="url(#aZ)">
    <path fill="#949798" d="m18.5 39.37-4.21-2.29c.01 0 .02.01.02.01l4.21 2.29c-.01 0-.02 0-.02-.01"></path>
    <path fill="#999b9d" d="m18.52 39.38-4.21-2.29c.04.02.08.04.13.05l4.21 2.29c-.05-.01-.09-.03-.13-.05"></path>
    <path fill="#9d9fa2" d="m18.65 39.43-4.21-2.29c.09.02.2.03.3.01l4.21 2.29c-.11.02-.21.01-.3-.01"></path>
  </g>
  <path fill="#3b7c6c" d="m18.95 38.04-4.21-2.29 30.28-4.26 4.22 2.29z"></path>
  <path fill="#354045" d="M33.85 22.3 29.64 20l-5.1-2.92 4.21 2.3z"></path>
  <defs>
    <path id="ba" d="m18.5 39.37-4.21-2.29a.575.575 0 0 1-.31-.52c0-.38.34-.75.76-.81l4.21 2.29c-.42.06-.76.43-.76.81 0 .23.12.42.31.52z"></path>
  </defs>
  <clipPath id="bb">
    <use xlink:href="#ba" overflow="visible"></use>
  </clipPath>
  <g clip-path="url(#bb)">
    <path fill="#2d5c50" d="m18.5 39.37-4.21-2.29a.575.575 0 0 1-.31-.52c0-.08.02-.16.04-.24l4.21 2.29c-.03.08-.04.16-.04.24 0 .23.12.42.31.52"></path>
    <path fill="#2e6053" d="m18.23 38.61-4.21-2.29c.01-.04.03-.07.05-.1l4.21 2.29c-.02.03-.03.06-.05.1"></path>
    <path fill="#306356" d="m18.28 38.51-4.21-2.29c.02-.03.03-.06.05-.09l4.21 2.29c-.02.03-.03.06-.05.09"></path>
    <path fill="#336759" d="m18.33 38.42-4.21-2.29c.02-.03.04-.05.06-.08l4.21 2.29c-.02.03-.04.05-.06.08"></path>
    <path fill="#336a5c" d="m18.4 38.34-4.21-2.29c.02-.03.05-.05.07-.08l4.21 2.29c-.03.03-.05.06-.07.08"></path>
    <path fill="#356e5f" d="m18.47 38.27-4.21-2.29a.55.55 0 0 1 .09-.07l4.21 2.29c-.03.01-.06.04-.09.07"></path>
    <path fill="#367162" d="m18.57 38.19-4.21-2.29c.04-.03.09-.06.13-.08l4.21 2.29c-.05.03-.09.05-.13.08"></path>
    <path fill="#387465" d="m18.7 38.11-4.21-2.29c.08-.04.17-.06.26-.08l4.21 2.29c-.09.02-.18.05-.26.08"></path>
  </g>
  <path fill="#4a9984" d="M49.24 33.78c.42-.06.77.21.77.6s-.35.75-.77.81l-30.28 4.26c-.42.06-.76-.2-.76-.6 0-.38.34-.75.76-.81l30.28-4.26z"></path>
  <path fill="#797b7c" d="m34.07 21.24-4.22-2.29-5.07-2.9 4.21 2.29z"></path>
  <defs>
    <path id="bc" d="m24.73 16.02 4.21 2.29c.02.01.03.02.05.03l-4.21-2.29c-.02-.01-.03-.02-.05-.03z"></path>
  </defs>
  <clipPath id="bd">
    <use xlink:href="#bc" overflow="visible"></use>
  </clipPath>
  <g clip-path="url(#bd)">
    <path fill="#7d7f80" d="m28.99 18.34-4.21-2.29a.219.219 0 0 0-.05-.03l4.21 2.29c.02.01.04.02.05.03"></path>
  </g>
  <path fill="#9d4841" d="m22.24 30.32-4.21-2.29 2.1-.3 4.21 2.29z"></path>
  <path fill="#713530" d="m21.8 34.19-4.22-2.3.01-3.33 4.21 2.29z"></path>
  <defs>
    <path id="be" d="m24.73 16.02 4.21 2.29a.3.3 0 0 0-.23-.03.5.5 0 0 0-.3.18l-4.21-2.29a.5.5 0 0 1 .3-.18c.09-.02.17-.01.23.03z"></path>
  </defs>
  <clipPath id="bf">
    <use xlink:href="#be" overflow="visible"></use>
  </clipPath>
  <g clip-path="url(#bf)">
    <path fill="#3d4a4f" d="m28.42 18.46-4.21-2.29.01-.01 4.21 2.29c-.01 0-.01 0-.01.01"></path>
    <path fill="#3f4c52" d="m28.43 18.44-4.21-2.29c.01-.02.03-.03.04-.04l4.21 2.29-.04.04"></path>
    <path fill="#404f55" d="m28.47 18.4-4.21-2.29c.02-.02.03-.03.05-.04l4.21 2.29c-.01.01-.03.02-.05.04"></path>
    <path fill="#445157" d="m28.52 18.36-4.21-2.29c.02-.02.05-.03.07-.04l4.21 2.29c-.02.01-.04.02-.07.04"></path>
    <path fill="#46545a" d="m28.59 18.32-4.21-2.29c.04-.02.08-.03.13-.04.06-.01.11-.01.16.01l4.21 2.29c-.05-.01-.1-.01-.16-.01-.04 0-.08.02-.13.04"></path>
    <path fill="#445157" d="M28.88 18.29 24.67 16c.01 0 .03 0 .05.01l4.21 2.29c-.01 0-.03-.01-.05-.01"></path>
    <path fill="#404f55" d="m28.94 18.31-4.22-2.3.01.01 4.22 2.29h-.01"></path>
  </g>
  <defs>
    <path id="bg" d="m21.8 30.85-4.21-2.29c0-.26.2-.5.44-.53l4.21 2.29c-.24.03-.44.27-.44.53z"></path>
  </defs>
  <clipPath id="bh">
    <use xlink:href="#bg" overflow="visible"></use>
  </clipPath>
  <g clip-path="url(#bh)">
    <path fill="#743631" d="m21.8 30.85-4.21-2.29c0-.06.01-.13.03-.18l4.21 2.29c-.01.06-.03.12-.03.18"></path>
    <path fill="#773832" d="m21.84 30.67-4.21-2.29c.01-.03.02-.05.03-.07l4.21 2.29c-.01.02-.02.04-.03.07"></path>
    <path fill="#7d3a34" d="m21.87 30.6-4.21-2.29a.21.21 0 0 1 .04-.06l4.21 2.29a.21.21 0 0 0-.04.06"></path>
    <path fill="#823c36" d="m21.91 30.54-4.21-2.29c.01-.02.03-.03.04-.05l4.21 2.29c-.02.01-.03.03-.04.05"></path>
    <path fill="#863e38" d="m21.95 30.49-4.21-2.29c.01-.02.03-.03.04-.05l4.21 2.29c-.02.02-.03.03-.04.05"></path>
    <path fill="#8a4039" d="m21.99 30.44-4.21-2.29c.02-.02.03-.03.05-.04l4.21 2.29c-.01.01-.03.03-.05.04"></path>
    <path fill="#8e423b" d="m22.04 30.4-4.21-2.29c.02-.02.05-.03.07-.04l4.21 2.29c-.02.01-.04.02-.07.04"></path>
    <path fill="#93433d" d="m22.11 30.36-4.21-2.29c.04-.02.08-.03.13-.04l4.21 2.29c-.04.01-.08.02-.13.04"></path>
  </g>
  <path fill="#c25950" d="M24.34 30.02c.24-.03.44.15.44.41l-.01 3.33c0 .26-.19.51-.44.54l-2.1.3c-.24.03-.44-.15-.44-.42l.01-3.33c0-.26.2-.5.44-.53l2.1-.3z"></path>
  <path fill="#999c9d" d="m23.61 24.88-4.21-2.3 5.14-5.5 4.21 2.3z"></path>
  <defs>
    <path id="bi" d="m23.07 25.02-4.21-2.29c.07.04.15.05.23.04a.54.54 0 0 0 .31-.19l4.21 2.29a.54.54 0 0 1-.31.19.31.31 0 0 1-.23-.04z"></path>
  </defs>
  <clipPath id="bj">
    <use xlink:href="#bi" overflow="visible"></use>
  </clipPath>
  <g clip-path="url(#bj)">
    <path fill="#949798" d="m23.07 25.02-4.21-2.29s.01 0 .01.01l4.21 2.29-.01-.01"></path>
    <path fill="#999b9d" d="m23.09 25.03-4.21-2.29c.02.01.05.02.07.03l4.21 2.29c-.03-.01-.05-.02-.07-.03"></path>
    <path fill="#9d9fa2" d="m23.16 25.06-4.21-2.29c.05.01.09.02.15.01.04-.01.08-.02.12-.04l4.21 2.29c-.04.02-.08.03-.12.04-.06 0-.11 0-.15-.01"></path>
    <path fill="#999b9d" d="m23.42 25.03-4.21-2.29c.02-.01.05-.03.07-.04l4.21 2.29c-.02.01-.05.03-.07.04"></path>
    <path fill="#949798" d="m23.49 24.99-4.21-2.29c.02-.01.04-.03.06-.05l4.21 2.29c-.02.02-.04.03-.06.05"></path>
    <path fill="#8f9393" d="m23.55 24.94-4.21-2.29.06-.06 4.21 2.29-.06.06"></path>
  </g>
  <path fill="#3a4d52" d="m11.42 45.67-4.22-2.3L52.54 37l4.22 2.29z"></path>
  <path fill="#445258" d="M22.99 24.29 18.78 22l5.42-5.84 4.22 2.3z"></path>
  <path fill="#5c6e76" d="M40.47 13.07c.1-.01.18.07.16.19l-.4 2.77c-.02.1-.09.16-.17.18-.04.01-.07 0-.11-.03l-.67-.5-4.83 6.49c-.08.11-.21.18-.33.2-.1.01-.19 0-.27-.06l-5.1-2.92-5.14 5.5a.54.54 0 0 1-.31.19.35.35 0 0 1-.31-.1.445.445 0 0 1-.13-.32c0-.13.04-.25.13-.35l5.42-5.84a.5.5 0 0 1 .3-.18c.1-.01.2 0 .27.07l5.07 2.9 4.53-6.08-.61-.45c-.1-.07-.07-.25.05-.32l2.38-1.31c.03-.02.05-.03.07-.03z"></path>
  <defs>
    <path id="bk" d="m23.07 25.02-4.21-2.29a.555.555 0 0 1-.08-.06.445.445 0 0 1-.13-.32c0-.13.04-.25.13-.35l4.21 2.29c-.08.1-.13.23-.13.35 0 .13.04.24.13.32.03.03.05.05.08.06z"></path>
  </defs>
  <clipPath id="bl">
    <use xlink:href="#bk" overflow="visible"></use>
  </clipPath>
  <g clip-path="url(#bl)">
    <path fill="#374247" d="m23.07 25.02-4.21-2.29a.555.555 0 0 1-.08-.06.445.445 0 0 1-.13-.32c0-.07.01-.13.03-.19l4.21 2.29c-.02.06-.03.13-.03.19 0 .13.04.24.13.32.03.03.05.05.08.06"></path>
    <path fill="#39454a" d="m22.9 24.45-4.21-2.29c.01-.02.02-.05.03-.07l4.21 2.29c-.01.03-.02.05-.03.07"></path>
    <path fill="#3b474d" d="m22.93 24.38-4.21-2.29.03-.06 4.21 2.29c0 .02-.02.04-.03.06"></path>
    <path fill="#3d4a4f" d="m22.97 24.33-4.21-2.29.03-.03L23 24.3c-.02 0-.02.02-.03.03"></path>
  </g>
  <defs>
    <path id="bm" d="M11.11 45.61 6.9 43.32c.09.05.19.07.3.05l4.21 2.29c-.1.02-.21 0-.3-.05z"></path>
  </defs>
  <clipPath id="bn">
    <use xlink:href="#bm" overflow="visible"></use>
  </clipPath>
  <g clip-path="url(#bn)">
    <path fill="#334448" d="M11.11 45.61 6.9 43.32c.01 0 .01.01.02.01l4.21 2.29s-.01 0-.02-.01"></path>
    <path fill="#34464a" d="m11.13 45.62-4.21-2.29c.03.01.06.03.09.03l4.21 2.29c-.03 0-.06-.01-.09-.03"></path>
    <path fill="#36484c" d="m11.22 45.66-4.21-2.29c.06.02.13.02.2.01l4.21 2.29c-.07.01-.14 0-.2-.01"></path>
  </g>
  <defs>
    <path id="bo" d="M11.11 45.61 6.9 43.32a.519.519 0 0 1-.26-.48l4.21 2.29c0 .22.1.4.26.48z"></path>
  </defs>
  <clipPath id="bp">
    <use xlink:href="#bo" overflow="visible"></use>
  </clipPath>
  <g clip-path="url(#bp)">
    <path fill="#7d7f80" d="M11.11 45.61 6.9 43.32a.519.519 0 0 1-.26-.48l4.21 2.29c0 .22.1.4.26.48"></path>
  </g>
  <path fill="#abadad" d="M11.48 11.98 7.27 9.69 52.6 3.32l4.22 2.29z"></path>
  <path fill="#7b7d7e" d="m10.85 45.13-4.21-2.29.06-32.45 4.21 2.29z"></path>
  <defs>
    <path id="bq" d="M10.91 12.68 6.7 10.39c0-.34.25-.65.57-.7l4.21 2.29c-.32.05-.57.35-.57.7z"></path>
  </defs>
  <clipPath id="br">
    <use xlink:href="#bq" overflow="visible"></use>
  </clipPath>
  <g clip-path="url(#br)">
    <path fill="#7d7f80" d="M10.91 12.68 6.7 10.39c0-.09.02-.17.04-.25l4.21 2.29c-.02.08-.04.16-.04.25"></path>
    <path fill="#818484" d="m10.95 12.43-4.21-2.29c.01-.03.03-.06.04-.09L11 12.34c-.02.03-.03.06-.05.09"></path>
    <path fill="#868889" d="m11 12.34-4.21-2.29c.01-.03.03-.05.05-.07l4.21 2.29a.18.18 0 0 0-.05.07"></path>
    <path fill="#8c8e8e" d="M11.04 12.26 6.83 9.97c.02-.02.03-.04.05-.06l4.21 2.29c-.01.02-.03.04-.05.06"></path>
    <path fill="#8f9393" d="M11.09 12.2 6.88 9.91l.06-.06 4.21 2.29-.06.06"></path>
    <path fill="#949798" d="M11.15 12.14 6.94 9.85 7 9.79l4.21 2.29-.06.06"></path>
    <path fill="#999b9d" d="M11.22 12.09 7 9.79c.03-.02.06-.03.1-.05l4.21 2.29-.09.06"></path>
    <path fill="#9d9fa2" d="M11.31 12.03 7.1 9.74c.05-.02.11-.04.17-.05l4.21 2.29c-.06.01-.12.03-.17.05"></path>
  </g>
  <path fill="#475f65" d="M57.98 2.32c1.38-.19 2.5.86 2.5 2.35l-.07 37.24-52.66 7.4.07-37.24c0-1.49 1.12-2.86 2.51-3.05l47.65-6.7zm-.65 36.28.06-32.45c0-.34-.26-.58-.57-.54l-45.34 6.37c-.32.04-.57.35-.57.7l-.06 32.45c0 .34.25.58.57.54l45.34-6.37c.31-.05.57-.37.57-.7"></path>
  <path fill="#3896be" d="M40.59 18.94c.24-.03.44.15.44.41L41 31.49c0 .26-.2.51-.44.54l-2.1.3c-.24.03-.44-.15-.44-.42l.02-12.13c0-.26.19-.5.44-.53l2.11-.31z"></path>
  <path fill="#d2d5d7" d="M56.82 5.61c.31-.04.57.19.57.54l-.06 32.45c0 .34-.26.65-.57.7l-45.34 6.37c-.32.04-.57-.2-.57-.54l.06-32.45c0-.34.25-.65.57-.7l45.34-6.37zM22.99 24.29c-.08.1-.13.23-.13.35 0 .13.04.24.13.32.08.08.19.12.31.1a.54.54 0 0 0 .31-.19l5.14-5.5 5.1 2.92c.08.05.17.07.27.06.12-.02.24-.09.33-.2l4.83-6.49.67.5c.03.02.07.03.11.03.08-.01.15-.08.17-.18l.4-2.77c.02-.12-.07-.2-.16-.19-.02 0-.04.01-.06.02l-2.38 1.31c-.12.06-.15.24-.05.32l.61.45-4.54 6.08-5.07-2.9a.358.358 0 0 0-.27-.07.5.5 0 0 0-.3.18l-5.42 5.85m26.24 10.9c.42-.06.77-.42.77-.81 0-.38-.35-.65-.77-.6l-30.28 4.26c-.42.06-.76.43-.76.81 0 .39.34.66.76.6l30.28-4.26m-8.21-15.84c0-.26-.2-.44-.44-.41l-2.1.3c-.24.03-.44.28-.44.53l-.02 12.13c0 .26.19.45.44.42l2.1-.3c.24-.02.44-.27.44-.53l.02-12.14m2.43 1.69-.02 10.1c0 .26.2.45.44.42l2.1-.29c.24-.03.44-.28.44-.54l.02-10.1c0-.26-.19-.44-.44-.41l-2.1.29c-.24.03-.44.28-.44.53M30.2 24.26c0-.26-.19-.45-.44-.42l-2.1.29c-.24.03-.44.28-.45.54l-.02 8.74c0 .26.2.45.44.42l2.1-.29c.24-.03.44-.28.44-.54l.03-8.74m5.4 2.62c0-.26-.2-.44-.44-.41l-2.1.29c-.24.03-.44.27-.45.53l-.01 5.36c0 .26.2.45.44.42l2.1-.29c.24-.03.44-.28.45-.54l.01-5.36m-13.8 3.97-.01 3.33c0 .26.2.45.44.42l2.1-.3c.24-.03.44-.28.44-.54l.01-3.33c0-.26-.19-.44-.44-.41l-2.1.3c-.24.03-.44.27-.44.53"></path>
  <path fill="#c9a860" d="M35.16 26.48c.24-.03.44.15.44.41l-.01 5.36c0 .26-.2.51-.45.54l-2.1.29c-.24.03-.44-.15-.44-.42l.01-5.36c0-.26.2-.5.45-.53l2.1-.29z"></path>
  <path fill="#4f9f97" d="M29.76 23.85c.24-.03.44.15.44.42l-.02 8.74c0 .26-.19.51-.44.54l-2.1.29c-.24.03-.44-.15-.44-.42l.02-8.74c0-.26.2-.51.45-.54l2.09-.29z"></path>
  <path fill="#3a4d52" d="M10.32 9.01 6.11 6.72 53.76.02l4.22 2.3z"></path>
  <path fill="#29373a" d="m7.75 49.31-4.22-2.3.07-37.24 4.22 2.3z"></path>
  <defs>
    <path id="bs" d="M7.82 12.07 3.6 9.77c0-1.49 1.12-2.86 2.51-3.05l4.21 2.29c-1.38.2-2.5 1.57-2.5 3.06z"></path>
  </defs>
  <clipPath id="bt">
    <use xlink:href="#bs" overflow="visible"></use>
  </clipPath>
  <g clip-path="url(#bt)">
    <path fill="#2b393c" d="M7.82 12.07 3.6 9.77c0-.37.07-.73.19-1.06L8.01 11c-.12.34-.19.7-.19 1.07"></path>
    <path fill="#2c3b3f" d="M8.01 11 3.79 8.71c.05-.15.12-.29.19-.42l4.21 2.29c-.06.14-.13.28-.18.42"></path>
    <path fill="#2e3d41" d="M8.2 10.58 3.98 8.29c.06-.11.13-.23.2-.33l4.21 2.29c-.06.11-.13.22-.19.33"></path>
    <path fill="#2f4043" d="M8.4 10.25 4.19 7.96c.07-.1.15-.2.23-.29l4.21 2.29c-.08.1-.16.19-.23.29"></path>
    <path fill="#314245" d="m8.63 9.97-4.22-2.3c.08-.09.17-.18.26-.26L8.88 9.7c-.09.09-.17.17-.25.27"></path>
    <path fill="#334448" d="m8.88 9.71-4.21-2.3c.1-.09.2-.17.3-.24l4.21 2.29c-.1.08-.2.16-.3.25"></path>
    <path fill="#34464a" d="m9.19 9.47-4.22-2.3c.13-.08.27-.16.41-.23l4.21 2.29c-.14.07-.27.15-.4.24"></path>
    <path fill="#36484c" d="M9.59 9.23 5.38 6.94c.23-.11.48-.18.73-.22l4.21 2.29c-.25.04-.5.11-.73.22"></path>
  </g>
</svg>
