<svg xmlns="http://www.w3.org/2000/svg" id="machine-learning" viewBox="0 0 512 512">
  <path d="M492.89,310.05l-25.3,65.54-39.1-1.15a193.618,193.618,0,0,1-46,48.3l2.88,39.1-64.4,28.17-27.02-28.17a215.921,215.921,0,0,1-66.69,1.72l-25.3,29.33-65.55-25.3,1.15-39.1a193.618,193.618,0,0,1-48.3-46l-39.09,2.88-28.18-64.4,28.17-27.02a215.921,215.921,0,0,1-1.72-66.69L19.11,201.95l25.3-65.54,39.1,1.15a193.618,193.618,0,0,1,46-48.3l-2.88-39.1,64.4-28.17,27.02,28.17a215.669,215.669,0,0,1,66.7-1.72l25.3-29.33,65.55,25.3-1.15,39.1a193.618,193.618,0,0,1,48.3,46l39.09-2.88,28.18,64.4-28.18,27.02a215.922,215.922,0,0,1,1.73,66.69ZM420.7,256A164.7,164.7,0,1,0,256,420.7,164.7,164.7,0,0,0,420.7,256Z" style="fill:#fedb41"></path>
  <path d="M256,91.3A164.7,164.7,0,1,1,91.3,256,164.7,164.7,0,0,1,256,91.3ZM356.2,316.21c11.52-5.28,18.8-14.27,16.18-23.82-2.55-9.28-13.33-15.48-14.89-16.14,10.47-14.09,4.48-33-11.26-42.1a35.12,35.12,0,0,0-3.29-1.68l.17-.36c5.56-23.05-17.21-26.94-17.21-26.94a24.431,24.431,0,0,0,4.3-8.08c2.65-8.75.45-20.92-9.32-27.35a29.9,29.9,0,0,0-15.95-4.97c-.15-11.96-10.4-22.05-22.69-24.41-9.82-1.88-20.24,1.41-28.24,8.4-6-6.99-16.42-10.28-26.24-8.4a24.963,24.963,0,0,0-20.69,24.41,29.9,29.9,0,0,0-15.95,4.97c-9.77,6.43-11.97,18.6-9.32,27.35a24.431,24.431,0,0,0,4.3,8.08s-22.77,3.89-17.21,26.94l.17.36a35.12,35.12,0,0,0-3.29,1.68c-15.74,9.1-21.73,28.01-11.26,42.1-1.56.66-12.34,6.86-14.89,16.14-2.62,9.55,4.66,18.54,16.18,23.82a20.83,20.83,0,0,0,1.43,24.98c7.99,9.31,24.53,9.9,35.67,4.57l.04.09a23.305,23.305,0,0,0,12.51,4.87,24.748,24.748,0,0,0,15.28-4.18c1.41,3.12,5.52,12.3,13.84,13.45,8.86,1.22,17.43-4.3,19.43-8.11,3,3.81,12.57,9.33,21.43,8.11,8.32-1.15,13.43-10.33,14.84-13.45a26.579,26.579,0,0,0,15.78,4.18,24.1,24.1,0,0,0,12.76-4.87l.09-.19c11.14,5.43,27.83,4.9,35.87-4.47A20.83,20.83,0,0,0,356.2,316.21Z" style="fill:#00efd1"></path>
  <path d="M254 284.85V148.76c8-6.99 18.42-10.28 28.24-8.4 12.29 2.36 22.54 12.45 22.69 24.41a29.9 29.9 0 0 1 15.95 4.97c9.77 6.43 11.97 18.6 9.32 27.35a24.431 24.431 0 0 1-4.3 8.08s22.77 3.89 17.21 26.94l-.17.36a35.12 35.12 0 0 1 3.29 1.68c15.74 9.1 21.73 28.01 11.26 42.1 1.56.66 12.34 6.86 14.89 16.14 2.62 9.55-4.66 18.54-16.18 23.82a20.83 20.83 0 0 1-1.43 24.98c-8.04 9.37-24.73 9.9-35.87 4.47l-.09.19a24.1 24.1 0 0 1-12.76 4.87 26.579 26.579 0 0 1-15.78-4.18c-1.41 3.12-6.52 12.3-14.84 13.45-8.86 1.22-18.43-4.3-21.43-8.11ZM192.9 345.76c-11.14 5.33-27.68 4.74-35.67-4.57a20.83 20.83 0 0 1-1.43-24.98c-11.52-5.28-18.8-14.27-16.18-23.82 2.55-9.28 13.33-15.48 14.89-16.14-10.47-14.09-4.48-33 11.26-42.1a35.12 35.12 0 0 1 3.29-1.68l-.17-.36c-5.56-23.05 17.21-26.94 17.21-26.94a24.431 24.431 0 0 1-4.3-8.08c-2.65-8.75-.45-20.92 9.32-27.35a29.9 29.9 0 0 1 15.95-4.97 24.963 24.963 0 0 1 20.69-24.41c9.82-1.88 20.24 1.41 26.24 8.4V351.88c-2 3.81-10.57 9.33-19.43 8.11-8.32-1.15-12.43-10.33-13.84-13.45a24.748 24.748 0 0 1-15.28 4.18 23.305 23.305 0 0 1-12.51-4.87Z" style="fill:#00acea"></path>
  <path d="M256,83.3C160.773,83.3,83.3,160.773,83.3,256S160.773,428.7,256,428.7,428.7,351.227,428.7,256,351.227,83.3,256,83.3Zm0,329.4c-86.4,0-156.7-70.3-156.7-156.7S169.6,99.3,256,99.3,412.7,169.6,412.7,256,342.405,412.7,256,412.7Z" style="fill:#083863"></path>
  <path d="M472.02,281.466a223.487,223.487,0,0,0-1.572-60.587L495.557,196.8a8,8,0,0,0,1.792-8.981l-28.18-64.4a8.013,8.013,0,0,0-7.917-4.772l-34.749,2.56A200.88,200.88,0,0,0,382.575,79.37L383.6,44.646a8,8,0,0,0-5.116-7.7l-65.551-25.3a8,8,0,0,0-8.938,2.239l-22.516,26.1a223.293,223.293,0,0,0-60.6,1.564L196.8,16.453a8,8,0,0,0-8.979-1.792l-64.4,28.17a8,8,0,0,0-4.773,7.917l2.561,34.759A200.882,200.882,0,0,0,79.37,129.435l-34.724-1.021a7.979,7.979,0,0,0-7.7,5.115l-25.3,65.54a8,8,0,0,0,2.237,8.938l26.105,22.526a223.562,223.562,0,0,0,1.565,60.588L16.453,315.2a8,8,0,0,0-1.792,8.98l28.18,64.4a8.006,8.006,0,0,0,7.917,4.772l34.749-2.56a200.9,200.9,0,0,0,43.928,41.841l-1.021,34.724a8,8,0,0,0,5.115,7.7l65.55,25.3a8,8,0,0,0,8.939-2.239l22.516-26.1a223.554,223.554,0,0,0,60.587-1.565l24.076,25.1a8,8,0,0,0,8.979,1.792l64.4-28.17a8,8,0,0,0,4.773-7.917l-2.561-34.759a200.882,200.882,0,0,0,41.842-43.928l34.724,1.021a7.959,7.959,0,0,0,7.7-5.115l25.3-65.54a8,8,0,0,0-2.236-8.937Zm-9.854,85.961-33.44-.984A7.952,7.952,0,0,0,421.833,370a185.1,185.1,0,0,1-44.1,46.3,8,8,0,0,0-3.221,7.02l2.464,33.452-54.1,23.663L299.724,456.3a7.99,7.99,0,0,0-7.211-2.332,207.607,207.607,0,0,1-64.22,1.657,8,8,0,0,0-7.091,2.708L199.583,483.4l-55.01-21.231.984-33.44A8,8,0,0,0,142,421.833a185.1,185.1,0,0,1-46.3-44.1,8,8,0,0,0-7.02-3.221l-33.443,2.464-23.671-54.1L55.7,299.724a8,8,0,0,0,2.332-7.211,207.607,207.607,0,0,1-1.657-64.22,8,8,0,0,0-2.706-7.09L28.6,199.575l21.232-55,33.44.984A8.007,8.007,0,0,0,90.167,142a185.1,185.1,0,0,1,44.1-46.3,8,8,0,0,0,3.221-7.02L135.024,55.22l54.1-23.663L212.276,55.7a8,8,0,0,0,7.215,2.331,207.4,207.4,0,0,1,64.226-1.656,8.007,8.007,0,0,0,7.091-2.708L312.427,28.6l55.01,21.231-.983,33.44a8,8,0,0,0,3.56,6.893,185.116,185.116,0,0,1,46.3,44.1,8,8,0,0,0,7.02,3.221l33.443-2.464,23.671,54.1L456.3,212.275a8,8,0,0,0-2.332,7.216,207.6,207.6,0,0,1,1.665,64.219,8,8,0,0,0,2.706,7.086L483.4,312.424Z" style="fill:#083863"></path>
  <path d="M233.646 196.621a7.178 7.178 0 0 1-3.275.262c-3.265-.58-6.059-4.3-6.8-9.032a8 8 0 1 0-15.81 2.459A30.017 30.017 0 0 0 211.28 200.5a12.695 12.695 0 0 0-2.381 12.576 7.993 7.993 0 0 0 15.442-1.3 21.151 21.151 0 0 0 3.225.858 21.876 21.876 0 0 0 3.83.337 23.988 23.988 0 0 0 6.739-.994 8 8 0 0 0-4.489-15.358ZM223.555 285.73a8 8 0 0 0-11.205-1.565 14.175 14.175 0 0 1-8.826 2.958 11.945 11.945 0 0 1-4.346-1.133 8 8 0 0 0-1.344-.732 13.913 13.913 0 0 1-6.3-8.993 8 8 0 0 0-15.658 3.29 30.1 30.1 0 0 0 4.434 10.543 15.613 15.613 0 0 0-3.71 5.986c-1.989 5.93-.109 12.376 4.909 16.823a8 8 0 0 0 10.68-11.913 3.59 3.59 0 0 1 .736-.263 28.037 28.037 0 0 0 9.7 2.367q.756.041 1.491.041a30.144 30.144 0 0 0 17.865-6.2A8 8 0 0 0 223.555 285.73ZM212.959 309.067a8 8 0 0 0 4.948 10.174 15.512 15.512 0 0 1 5.559 2.9 3.869 3.869 0 0 1-.223.766 8 8 0 0 0 12.136 10.425 18.379 18.379 0 0 0 4.105-10.258c.455-4.811-1.064-13.671-16.351-18.954A8 8 0 0 0 212.959 309.067Z" style="fill:#083863"></path>
  <path d="M351.839,228.206a27.6,27.6,0,0,0-4.173-17.934,28.847,28.847,0,0,0-10.322-9.318q.276-.767.513-1.545c3.414-11.274.934-27.458-12.574-36.348a38.1,38.1,0,0,0-13.313-5.5c-3.208-12.321-14.137-22.352-28.226-25.059a41,41,0,0,0-29.27,5.971,37.029,37.029,0,0,0-28.223-5.97,33.081,33.081,0,0,0-26.338,25.082,38.06,38.06,0,0,0-13.191,5.473c-13.513,8.893-15.993,25.077-12.579,36.351q.236.779.513,1.545a28.847,28.847,0,0,0-10.322,9.318,27.6,27.6,0,0,0-4.173,17.934A40.172,40.172,0,0,0,142,253.661a33.752,33.752,0,0,0,1.87,19.974c-4.67,3.695-9.963,9.351-11.965,16.638-2.967,10.818,2.3,21.778,13.614,29.349a28.535,28.535,0,0,0,5.64,26.778c6.415,7.475,16.373,10.719,26.281,10.719a45.73,45.73,0,0,0,14.512-2.357,31.221,31.221,0,0,0,12.881,3.934,30.665,30.665,0,0,0,12.531-1.642c3.187,4.685,8.291,9.779,16.115,10.862a26.686,26.686,0,0,0,3.628.245,31.063,31.063,0,0,0,17.4-5.549,35.422,35.422,0,0,0,18.3,5.554,27.2,27.2,0,0,0,3.712-.251c7.825-1.082,13.386-6.389,16.849-11.05a31.821,31.821,0,0,0,26.5-2.169,45.741,45.741,0,0,0,14.731,2.433c9.895,0,19.816-3.249,26.242-10.739a28.528,28.528,0,0,0,5.633-26.768c11.314-7.571,16.58-18.532,13.612-29.351-2-7.286-7.294-12.941-11.964-16.637A33.748,33.748,0,0,0,370,253.661,40.175,40.175,0,0,0,351.839,228.206ZM246,267.981c-.334-.141-.641-.267-.881-.359a8,8,0,0,0-5.738,14.936,17.283,17.283,0,0,1,6.619,4.57v61.877c-2,1.582-6.229,3.624-10.334,3.06-3.9-.539-6.7-6.736-7.646-8.82a8,8,0,0,0-11.612-3.437,17.659,17.659,0,0,1-7.745,2.9A30.873,30.873,0,0,0,213.23,332.5a8,8,0,1,0-15.54-3.81,13.873,13.873,0,0,1-4.658,7.647,17.361,17.361,0,0,1-3.585,2.211c-8.029,3.842-20.742,3.734-26.138-2.553a12.9,12.9,0,0,1-.776-15.46,8,8,0,0,0-3.4-11.592c-6.457-2.96-13.421-8.515-11.8-14.428,1.4-5.11,8.173-9.846,10.4-10.939a8,8,0,0,0,3.2-12.092,17.815,17.815,0,0,1-3.263-14.581c1.317-6.368,5.729-12.135,12.114-15.827a27.53,27.53,0,0,1,2.548-1.3c12.521-5.607,28.793-1.848,36.273,8.381a8,8,0,1,0,12.915-9.444c-9.97-13.633-28.01-19.973-45.063-16.839a9.849,9.849,0,0,1,1.195-2.724c3.085-4.773,9.795-6.088,9.8-6.089a8,8,0,0,0,4.913-12.868,16.277,16.277,0,0,1-2.9-5.417c-1.8-5.95-.3-14.163,6.066-18.351a22.016,22.016,0,0,1,11.707-3.651c6.721-.148,13.529,2.814,19.191,8.305a8,8,0,0,0,11.138-11.488,45.091,45.091,0,0,0-20.922-11.759,17.175,17.175,0,0,1,12.627-9.61A20.825,20.825,0,0,1,246,152.107Zm118.665,26.526c1.623,5.916-5.341,11.471-11.8,14.431a8,8,0,0,0-3.4,11.592,12.9,12.9,0,0,1-.768,15.45c-5.457,6.359-18.236,6.416-26.346,2.464a16.753,16.753,0,0,1-3.378-2.107,13.874,13.874,0,0,1-4.665-7.652,8,8,0,0,0-15.54,3.81,30.886,30.886,0,0,0,4.6,10.257,19.426,19.426,0,0,1-8.776-2.944,8,8,0,0,0-11.612,3.437c-1.478,3.27-5,8.317-8.641,8.82-4.552.63-9.638-1.77-12.339-3.658V291.656a7.958,7.958,0,0,0,.831-5.743,20.871,20.871,0,0,0-.831-2.689V260.048a7.962,7.962,0,0,0,1.451-5.532,4.125,4.125,0,0,1,.08-1.446c.663-2.843,4.725-5.56,8.455-6.991a8,8,0,1,0-5.732-14.938A39.828,39.828,0,0,0,262,233.079V152.658c5.775-3.971,12.574-5.622,18.731-4.442a21.174,21.174,0,0,1,14.183,9.724,45.2,45.2,0,0,0-20.473,11.646,8,8,0,1,0,11.138,11.488c5.662-5.491,12.472-8.44,19.2-8.305a22.02,22.02,0,0,1,11.707,3.654c6.36,4.185,7.863,12.4,6.061,18.348a16.277,16.277,0,0,1-2.9,5.417,8,8,0,0,0,4.913,12.868c.065.011,6.71,1.4,9.75,6.018a9.806,9.806,0,0,1,1.241,2.8c-17.057-3.135-35.094,3.206-45.062,16.838a8,8,0,1,0,12.915,9.444c7.48-10.228,23.753-13.986,36.282-8.377a27.441,27.441,0,0,1,2.547,1.3c6.377,3.687,10.789,9.454,12.106,15.822a17.815,17.815,0,0,1-3.263,14.581,8,8,0,0,0,3.2,12.092C356.493,284.664,363.262,289.4,364.665,294.507Z" style="fill:#083863"></path>
  <path d="M284.431 212.636a21.073 21.073 0 0 0 3.228-.858 7.993 7.993 0 0 0 15.442 1.3 12.566 12.566 0 0 0 .239-7.754 12.941 12.941 0 0 0-2.626-4.811 30.055 30.055 0 0 0 3.521-10.2 8 8 0 1 0-15.81-2.459c-.737 4.737-3.531 8.452-6.8 9.033a7.183 7.183 0 0 1-3.272-.263 8 8 0 0 0-4.489 15.358 23.99 23.99 0 0 0 6.74.994A21.735 21.735 0 0 0 284.431 212.636ZM329.935 270.081a8 8 0 0 0-9.474 6.184 13.921 13.921 0 0 1-6.3 9 7.872 7.872 0 0 0-1.342.731 11.924 11.924 0 0 1-4.327 1.131 14.1 14.1 0 0 1-8.844-2.957 8 8 0 0 0-9.64 12.77 30.148 30.148 0 0 0 17.877 6.2c.492 0 .992-.013 1.5-.041a28 28 0 0 0 9.684-2.364 3.56 3.56 0 0 1 .738.261 8 8 0 0 0 10.68 11.913c5.018-4.447 6.9-10.893 4.911-16.814a15.617 15.617 0 0 0-3.714-5.993 30.1 30.1 0 0 0 4.436-10.545A8 8 0 0 0 329.935 270.081ZM288.867 304.119c-10.574 3.654-17.145 11.745-16.345 20.2a16.2 16.2 0 0 0 4.1 9.01 8 8 0 0 0 12.018-10.562l-.014-.017c.52-.76 2.081-2.34 5.468-3.511a8 8 0 0 0-5.226-15.122Z" style="fill:#083863"></path>
</svg>
